<svg xmlns="http://www.w3.org/2000/svg" class="h-4 w-auto" viewBox="0 0 217.569 15">
<g transform="translate(-342.462 -1061.851)">
<path d="M9.545,28.168l-1.658-4.73-1.658,4.73Zm.98,2.808H5.248L4.4,33.445H.462L5.87,19.236H9.9l5.408,14.209H11.373Zm11.8-5.22h1.225q2.035,0,2.035-1.771t-2.035-1.771H22.321Zm0,7.688H18.628V19.236h5.879a5.029,5.029,0,0,1,3.665,1.244,4.678,4.678,0,0,1,1.272,3.505,4.678,4.678,0,0,1-1.272,3.505,5.029,5.029,0,0,1-3.665,1.244H22.321Zm18.863-11.08H36.794v2.374h4.146v3.128H36.794v2.45h4.391v3.128H33.1V19.236h8.084Z" transform="translate(342 1043.01)" fill="#35373E"></path>
<path d="M10.527,24.5h7.33a20.364,20.364,0,0,1-.094,2.054,7.279,7.279,0,0,1-.377,1.715,6.844,6.844,0,0,1-1.074,1.969,6.283,6.283,0,0,1-1.592,1.432,7.485,7.485,0,0,1-2.007.876,8.608,8.608,0,0,1-2.3.3A8.075,8.075,0,0,1,7.389,32.3a6.825,6.825,0,0,1-2.346-1.536,6.956,6.956,0,0,1-1.526-2.374,8.872,8.872,0,0,1-.009-6.106,6.679,6.679,0,0,1,1.526-2.365A6.937,6.937,0,0,1,7.417,18.4a8.458,8.458,0,0,1,3.109-.546,7.707,7.707,0,0,1,3.9.961,6.654,6.654,0,0,1,2.657,2.977l-3.505,1.451a3.565,3.565,0,0,0-1.272-1.677,3.193,3.193,0,0,0-1.781-.509,3.576,3.576,0,0,0-1.508.311,3.267,3.267,0,0,0-1.159.886,4.251,4.251,0,0,0-.754,1.385,5.639,5.639,0,0,0-.273,1.809,5.727,5.727,0,0,0,.236,1.677,3.788,3.788,0,0,0,.707,1.338,3.186,3.186,0,0,0,1.168.876,3.947,3.947,0,0,0,1.621.311,4.494,4.494,0,0,0,1.055-.122,2.784,2.784,0,0,0,.914-.4,2.252,2.252,0,0,0,.669-.707,2.827,2.827,0,0,0,.358-1.055H10.527Zm19.447-3.128H25.583v2.374h4.146v3.128H25.583v2.45h4.391v3.128H21.89V18.246h8.084Zm4.353,11.08V18.246H38.02l6.822,8.687V18.246h3.675V32.454H44.842L38.02,23.767v8.687Zm24.253-11.08v11.08H54.886V21.374H51.852V18.246h9.761v3.128Zm10.063-3.128v11.08H73.07v3.128H64.949V18.246Zm16.112,3.128H80.363v2.374h4.146v3.128H80.363v2.45h4.391v3.128H76.67V18.246h8.084Zm3.712,11.08,2.412-14.209h3.656l2.845,7.575,2.827-7.575h3.656l2.412,14.209H102.6l-1.225-8.178L98.02,32.454H96.55l-3.185-8.178-1.225,8.178Zm29.567-5.276-1.658-4.73-1.658,4.73Zm.98,2.808h-5.276l-.848,2.469H108.95l5.408-14.209h4.033L123.8,32.454h-3.938Zm8.1,2.469V18.246h3.693l6.822,8.687V18.246h3.675V32.454h-3.675l-6.822-8.687v8.687Z" transform="translate(418.726 1044)" fill="#35373E"></path>
<path d="M110.387,12.66v7.389h-1.3V12.66h-1.979V11.439h5.253V12.66Zm3.459,3.045a4.217,4.217,0,0,1,1.333-3.123,4.387,4.387,0,0,1,3.19-1.3,4.5,4.5,0,0,1,4.478,4.478,4.234,4.234,0,0,1-1.327,3.151,4.55,4.55,0,0,1-6.212.145A4.231,4.231,0,0,1,113.846,15.705Zm1.31.017a3.112,3.112,0,0,0,.959,2.348,3.177,3.177,0,0,0,4.489-.017,3.342,3.342,0,0,0,.011-4.617,3.211,3.211,0,0,0-4.534,0A3.106,3.106,0,0,0,115.157,15.722Z" transform="translate(288.359 1053.55)" fill="#35373E"></path>
</g>
</svg>