<svg xmlns="http://www.w3.org/2000/svg" class="ml-4 h-6 w-auto text-white" viewBox="0 0 504.684 228.281">
<path d="M819.2,366.477a5.771,5.771,0,0,1-.133-1.057,12.763,12.763,0,0,0-.4-3.923c-.166-.867-.643-1.787-.783-2.63-.063-.376.2-.792.133-1.175-.027-.2-.33-.1-.389-.394a20.255,20.255,0,0,1-.135-2.752c-.678-.658-.3-1.6-1.047-2.231-.213-3.444-1.725-6.246-1.971-9.566a2.891,2.891,0,0,1-.787-1.187c-2.367-6.323-4.418-12.582-8.137-17.7a1.12,1.12,0,0,0-.131-.785c-1.07-2.041-3.1-3.647-3.279-6.161.523-.788.164-1.824.523-2.628-.715-1.987.545-4.367-.391-6.021-.432-.357-.717-.053-1.186-.27-.971-.736-1.834-1.945-2.621-2.488-.807-2.186-2.242-4.623-2.623-6.954-1.271-.215-1.178-1.8-1.836-2.617a16.474,16.474,0,0,0-2.1.528,2.921,2.921,0,0,0,0-1.186c-3.557-6.409-4.035-15.893-11.027-18.875.627-1.1,2.928.109,2.887-1.447-.014-.918-3.166-1.769-5.383-1.963-.832-.074-1.615.132-2.227,0a3.813,3.813,0,0,1-2.365-2.1c.518-.8,1.438-1.192,1.842-2.1-4.6-3.872-9.564-7.69-13.907-12.582-1.964-2.221-4.229-4.31-5.774-7.477-.646-1.316-1.348-2.923-2.1-4.59-.646-1.438-1.828-3.41-1.966-4.721-.081-.778.19-1.67.13-2.49-.146-2.075-.942-3.986-.523-6.164-.471-2.2-1.317-4.017-1.705-6.293-1.99-3.916-3.131-8.677-7.221-10.49-1.285-1.168-3.277-3.522-1.177-5.109,1.472-.6,2.841-2.084,4.851-2.363,1.447-.2,3.322.428,4.6-.388.211-1.076-.5-1.384-.525-2.365-.04-1.38,1.342-1.952,1.447-2.884.1-1.032-1.148-1.6-.787-2.756.342-1.152,2.3-1.028,3.144-1.835.356-2.335-2.257-3.8-2.356-5.768-.1-1.886.642-6.17.788-7.731,1.828-1.181,4.2-1.833,3.8-5.248-1.069-2.2-3.393-3.162-6.294-3.536.013-3.274.093-6.519-1.569-8.4-4.509-5.06-21.6-3.76-25.725.4-2.087,2.109-1.235,5.785-1.309,8.915-2.444.354-5.526,1.608-5.906,3.67-.674,3.639,3.147,5.015,6.43,6.03-.714,3.219-1.115,7.762.129,10.094.973,1.818,2.179,3.217,3.152,4.854.439.734.52,1.539,1.045,2.094a8.5,8.5,0,0,1,0,3.281c-.377.006-.961-.953-1.045-.394-.205,1.107-.292,2.329-.527,3.411-1.617,1.289-3.941,1.705-5.641,3.013a18.3,18.3,0,0,0-3.279,4.457c-5.029,8.5-9.715,16.364-14.433,24.78a47.08,47.08,0,0,0-5.513,14.026c3.252,10.212,5.979,20.95,9.055,31.342a9.545,9.545,0,0,1,2.1-1.054c1.432,2.979.36,7.674.657,11.8a15.96,15.96,0,0,0-6.04,4.063c-5.144-.834-9.362-3.726-14.955-3.274-2.057,5.442-3.057,11.793-4.595,18.088-1.057,4.366-2.348,8.839-3.408,13.643-.334,1.492-1.189,3.815-.922,4.851.12.451.646.54,1.053,1.045.295.38.343.7.651,1.05.8.908,1.342.8,2.494,1.311.517.234.888.742,1.31.918.688.288,1.513.388,2.236.654,2.529.964,5.4,2.475,7.611,3.412.549.234,1.173.17,1.706.391.572.246,1.016.684,1.569.914,2.838,1.23,5.848,2.1,8.135,3.939a14.989,14.989,0,0,0-2.486,7.213,39.472,39.472,0,0,0-4.994,8.521c-.9,1.058-2.518,1.249-2.884,2.622-.56,2.1,2.272,5.824,3.809,5.9,1.271,1.836,3.371,2.434,4.854,3.938.874.883,1.279,2.181,2.231,3.012.658.58,1.613,1.1,2.363,1.7,1.41,1.136,2.535,2.184,4.457,2.625,1.119,1.507,3.6,2.429,5.64,3.02.915.26,1.768.579,2.493.784,1.82.488,6.053,1.456,7.486-.268-.055-1.641-.255-2.317-.4-3.8a21.955,21.955,0,0,0-4.467-3.411c-2.5-4.477-4.931-10.713-2.884-16.526a.282.282,0,0,0-.123-.022l.565-2.651a4.236,4.236,0,0,0,.345.445,54.076,54.076,0,0,1,.921-6.033c2.1,1.23,4.684-.3,6.295-1.175.1-.937,1.32-1.551,1.579-2.229.8-2.1,1.331-4.481,2.1-6.813,2.237-6.84,4.295-14.181,6.431-20.716a4.337,4.337,0,0,1,1.571,1.308c.341,1.409,1.421,2.383,2.1,3.675,1.637,3.111,2.313,6.895,3.806,10.221a7.712,7.712,0,0,0-.923,3.669c-1.02.971-.7,2.726-1.179,4.2-.108.326-.437.6-.528.914-.448,1.6.506,2.791.528,4.2.011.99-.64,2.006-.657,3.008a22,22,0,0,0,.525,3.148c.07.422.143.822.211,1.241l.055,8.588c.447,5.744-1.223,10.056-.525,15.606,1.265.354,2.868.365,3.941.923-.246,1.509-.884,3.311-.924,4.586,1.119-.034,1.487.7,2.357.922.639.143,1.653-.209,2.494,0,.389.088.713.479,1.057.525,1.346.179,2.994-.332,4.714-.525,5.336-.6,12.7.375,18.116,0,1.672-.115,2.893-.942,4.721-.663-.029-.577-.271-.953-.264-1.569a2.7,2.7,0,0,0,1.711-3.675c-1.168-1.006-2.5-2.317-4.469-2.624-.717-.105-1.387.1-2.1,0-2.26-.3-4.014-1.777-5.768-2.354-.188-.419-.057.634-.4.132-1.83-1.406-4.569-2-5.646-3.938a17.385,17.385,0,0,1-.79-2.616c-.869-3.055-.286-5.693-.123-9.312.314-7.165.618-12.961,1.181-19.929.421-5.18,1.367-10.429,1.181-14.947a39.325,39.325,0,0,0-.655-6.424c-.582-2.55-2.795-4.494-2.36-7.342-2.8-7.563-5.789-14.934-8.265-22.811,1.044-.264,2.093-.523,3.144-.791-1.857-9.635-4.734-18.95-5.113-29.625a15.607,15.607,0,0,1,2.884,3.272,9.407,9.407,0,0,0,1.441,2.492c.778.682,1.92.882,2.757,1.446a17.982,17.982,0,0,1,3.673,3.93c.5.6,1.533,1.048,1.971,1.7.168.268.061.577.263.79.932,1.022,2.341,1.634,3.408,2.62.7-.183.871-1.078,1.705-1.045,1.516.045,3.594,2.039,4.2,3.277-2.412,3.238-1.1,9.249,1.842,10.884a4.425,4.425,0,0,0,2.361-1.184c-1.354-1.888-3.807-3.608-2.629-7.2,1.311.714,1.2,2.9,2.756,3.4,1.213.391,2.617-.188,3.939.522.846-.913,1.977-2.212,3.014-2.494,1.584,4.314,3.443,8.36,4.988,12.717.092.438.451.6.789.789-.338.36-1.025.371-1.184.917.854,3.062,2.529,5.487,1.969,8.524,1.613,1.235,1.326,3.45.135,4.977.871,1.455,2.51,2.711,3.8,4.332.684.845.936,1.966,1.574,2.755.176.213.475.213.666.391.889.876,1.658,2.628,1.178,3.8.242.458.166,1.241.393,1.709a3.167,3.167,0,0,0-.262.791c1.16,5.826,3.518,11.488,5.377,17.036.363.505.883,1,.658,1.71a17.711,17.711,0,0,1,2.627,6.161c3.795,5.567,6.682,12.024,10.885,17.176.742,1.623,1.4,3.435,2.1,5.244.648,1.671,1.141,3.976,2.623,4.724,1.068-.635.313-1.758,0-2.494C821.377,372.253,819.813,369.2,819.2,366.477Zm-113.765-64.9c.426-.8,1.8-.65,2.1-1.574.678.586.837,1.7,1.576,2.226a3.045,3.045,0,0,1,3.151.921c.767.114.816-.494,1.441-.527a4.419,4.419,0,0,0,3.411.658,4.734,4.734,0,0,1,1.312,2.227C714.212,304.421,710.064,302.633,705.436,301.58Zm15.745-28.713c-.485,4.2-3.021,8.322-3.408,12.846-1.288-1.255-1.58-3.488-2.757-4.85.352-2.928-1.718-7.388-2.359-11.545-.692-4.487-.326-9-1.048-13.631,2.645-3.824,5.042-7.9,7.743-11.664.1.021.123.129.264.129,1.563,3.689,1.316,9.94,1.307,15.993,0,2.155.136,4.346.136,6.427A61.462,61.462,0,0,1,721.181,272.867Z" transform="translate(-317.209 -162.327)" fill="currentColor"></path>
<path d="M678.146,383.688c-1.963-.565-3.974-1.437-6.035-2.047-1.769-.511-3.7-.567-5.377-1.142a8.272,8.272,0,0,1-4.069-3.712,14.612,14.612,0,0,1-.919-6.131,98.184,98.184,0,0,0,.789-16.489,93.009,93.009,0,0,1,0-13.177c.206-2.508,1.511-5.094,1.837-7.417.358-2.565-.584-4.816-.79-6.9-.238-2.485.172-4.865-.264-7.154a45.586,45.586,0,0,0-1.837-6.777c-.8-2.173-2.095-4.3-2.883-6.647-.437-1.3-.669-1.9-1.046-2.939-1.393-3.778-2.667-7.626-3.943-11.252-.6-1.724-1.871-3.239-2.1-4.6a19.785,19.785,0,0,1,0-2.051,10.156,10.156,0,0,1-.392-2.938c.125-1.453.753-5.028,1.052-7.67.177-1.584-.549-9.107.394-9.327,1.139-.282,1.441,2.326,2.23,3.7,1.043,1.818,2.982,2.27,4.723,3.456,1.09.742,2.213,1.524,3.276,2.292,2.088,1.518,4.084,3.471,6.435,4.737,1.015.552,2.078.642,3.02,1.279,1.961,1.323,2.6,3.534,4.2,5.881.643.942,1.554,1.893,2.232,2.816.631.859,1.7,2.605,2.623,2.552,1.009-.052.766-1.166,1.57-1.409.721.2.988.829,2.1.64.627-.111.36-1.1.783-1.408.826.125,1.516.822,2.494.388.557-.741-.194-1.329-.131-2.174.048-.636.6-1.028.527-1.664-.127-1.13-1.939-2.52-2.891-3.45-1.162-1.145-2.687-2.037-2.887-3.322,1.059-.65,2.793-.315,2.759-1.788-.048-2.179-4.974-1.976-7.6-2.3-2.147-.269-3.363-3.074-4.6-4.605-2.688-3.325-5.42-6.53-8.267-9.715-1.864-2.081-3.781-4.019-5.645-6.388a52.486,52.486,0,0,1-4.85-7.16,21.386,21.386,0,0,1-2.1-6.4c-.159-2.072.914-3.824.914-5.622,0-2.539-1.48-4.106-1.834-7.029a37.133,37.133,0,0,1-2.232-5.116A19.068,19.068,0,0,0,646,219.16c-1.127-1.048-3.838-2.124-3.679-4.088.106-1.232,2.519-2.661,4.591-3.193,1.936-.5,4.168.206,5.519-.771.609-1.175-.359-1.689-.264-2.939.083-1.1,1.405-1.854,1.44-2.683.031-.659-.99-1.612-.784-2.306.36-1.24,2.657-.728,3.148-2.043.112-2.717-1.9-3.228-2.364-5.5-.318-1.544.485-2.543.66-3.706.268-1.883-.139-4.042.26-5.5.314-1.149,1.365-2.009,1.048-3.325-.32-1.335-2.386-2.24-3.8-2.554a20.781,20.781,0,0,1-2.231-.26,14.717,14.717,0,0,1-2.23-1.535,15.347,15.347,0,0,0-6.818-1.918c-5.689-.508-8.291,1.433-11.418,3.713-2.387,1.734-4.55,3.727-5.51,6.393-.779,2.155-.762,3.749-1.186,6.259a16.231,16.231,0,0,0-.52,2.176,11.306,11.306,0,0,0,.786,3.706c1.126,2.957,4.037,5.2,4.59,8.056a7.631,7.631,0,0,1-.784,4.731c-.8,1.419-2.871,2.212-4.072,3.193-3.7,3.048-7.668,6.775-9.443,11.63-.189.531-.156,1.23-.391,1.8a16.28,16.28,0,0,1-2.1,2.806c-2.244,2.934-3.623,6.455-5.249,9.846-1.933,4.044-4.267,7.486-5.772,11.764-.221.643-.617,1.218-.789,1.789-.949,3.168.077,6.033.924,8.563.262.8.722,1.512.912,2.3.945,3.865,1.826,8.033,2.891,11.257.188.564.2,1.214.4,1.786,1.418,4.13,4.914,7.653,4.98,12.654.055,3.617-1.357,12.373,1.451,13.553.461.2,1.153-.161,1.836,0s1.125.836,1.571.9c.56.074,1.041-.308,1.574-.257.949.083,1.854,1.247,3.021.511.566.514,1.4.765,1.838,1.406-.371,2.571-.732,5.174-1.054,7.8-.482,4.006-.022,8.047-.656,11.632a18.614,18.614,0,0,1-3.671,8.177c-3.4,4.449-6.937,8.837-9.58,13.813-.454.864-1.095,1.727-1.441,2.559-2.6,6.247.914,15.17-.133,21.733-.79,4.939-3.318,9.389-2.756,15.082,1.166,1.324,3.846,1.461,6.166,1.53,2.277.079,4.689-.307,7.352,0,3.719.444,9.34,1.187,12.855.521a15,15,0,0,1,2.23-.646c1.968-.012,4.7,1.179,6.172-.506a4.236,4.236,0,0,0,0-2.179c-1.371-1.844-4.211-1.667-6.963-2.424-1.789-.505-3.633-.588-5.239-1.023a26.221,26.221,0,0,1-3.942-1.8c-1.39-.667-3-1.27-3.538-2.3a8.841,8.841,0,0,1-.527-3.445,33.949,33.949,0,0,1,.919-7.535c.6-2.445.828-5.01,1.569-7.037,1.315-3.567,3.733-6.672,5.647-9.849,2.583-4.287,5.641-8.173,7.348-13.035,2.457-2.618,5.236-4.558,6.691-8.055.6-1.447.691-3.216,1.838-4.475,1.032.522,1.461,1.707,2.1,2.683.6.916,1.27,1.809,1.971,2.816.914,1.313,3.063,4.771,3.146,6.393a8.45,8.45,0,0,1-.786,2.686c-.3.982-.393,2.126-.65,2.932-.95,3-2.133,5.553-1.315,8.958a57.155,57.155,0,0,0,2.231,6.9c1.023,2.693,2.028,5.286,3.015,7.8a22.789,22.789,0,0,1,1.448,3.955c.32,2.191-.551,3.211-.924,4.6-1.057,3.995-1.631,7.546,0,11.638.578.294,1.364,1.688,2.231,2.052,1.371.565,4.765.406,7.216.248a68.883,68.883,0,0,1,11.285.387c.889.09,1.984-.078,3.021,0a19.079,19.079,0,0,0,2.886.259c1.645-.111,3.418-.923,5.119-.772,1.6.137,2.889.706,3.807.514,1.446-.307,1.684-1.65,1.573-3.071A58.842,58.842,0,0,0,678.146,383.688ZM623.7,268.893c-.156,1.155-.137,2.412-.391,3.581-.562,2.529-1.442,4.968-1.843,7.546a75.226,75.226,0,0,1-1.439,7.914c-1.318-.083-1.816-1.826-2.363-2.932a39.651,39.651,0,0,1-2.759-5.5c-.837-2.614-.921-5.821-1.177-8.949-.275-3.382-.377-8.891-.529-12.531a14.36,14.36,0,0,1,.529-4.986c.729-1.78,3.865-3.992,5.514-4.979.148-.092.24-.313.522-.257,1.5.271,3.082,4.295,3.673,6.262a35.262,35.262,0,0,1,.92,4.224C624.93,262.063,624.137,265.525,623.7,268.893Z" transform="translate(-317.209 -162.327)" fill="currentColor"></path>
<path d="M588.659,293.961c-.256-.945.076-1.866-.131-2.467-.907-2.739-6.638-4.463-8.132-7.3-1.062-2.015-1.5-4.571-2.365-6.946-1.67-4.605-3.228-9.187-5.511-13.182-1.571-2.759-3.924-5.5-4.586-8.593-.8-3.679.332-7.465-1.052-10.474-.516-1.119-1.945-2.231-2.89-3.655-.871-1.318-1.523-3.177-2.357-4.116-1.329-1.479-5.944-3.375-5.776-5.3.17-1.951,2.458-.99,4.069-.949,3.518.113,5.8-1.733,7.611-3.41,1.585-1.465,4.221-3.919,1.968-5.88,2.455-1.771-1.1-3.336-1.054-5.416.024-.773,1.041-1.663,1.181-2.472.433-2.42-.533-4.158-.918-6.239-.263-1.426-.3-3.1-.916-3.886-.856-1.088-2.858-1.043-4.6-1.408a16.573,16.573,0,0,0-3.015-.706c-.984-.009-2.154.6-3.406.706-3.077.252-6.487-.721-9.19.117-1.639.507-3.538,2.608-4.593,4-1.187,1.57-2.753,3.651-3.148,5.417a36.728,36.728,0,0,0-.265,5.18c-.072,1.9-.393,4.02.135,5.414.4,1.061,2.2,1.289,2.1,3.059-.075,1.31-1.735,1.861-3.28,2.944-1.013.711-1.595,1.579-2.493,2.119-3.167,1.9-7.649,3.406-9.05,6.589-.226.5-.185,1.121-.4,1.648-3.1,7.569-7.349,16.046-8.659,25.189a19.183,19.183,0,0,0,1.574,10.593,60.528,60.528,0,0,0,7.868,12.6c1.027,1.339,2.479,2.5,2.625,3.65.178,1.37-.69,2.653-1.049,4a16.057,16.057,0,0,0-.131,9.188c.146.445.595.792.789,1.291.206.517.188,1.151.392,1.65.629,1.5,1.883,2.656,1.968,3.881.123,1.673-.759,3.249-1.049,4.706-.6,3.034-.081,6.636-.394,9.544-.055.52-.33,1.109-.391,1.758-.175,1.778.1,3.963-.526,5.536a15.851,15.851,0,0,1-4.854,6c-1.046.765-2.467,1.091-3.546,1.767a33.884,33.884,0,0,0-5.9,5.419c-.889.937-1.719,2-2.626,2.938-2.925,3.013-4.6,6.381-6.948,9.894a34.026,34.026,0,0,1-5.514,5.885c-1.417.854-3.512,1.752-4.2,3.411a8.1,8.1,0,0,0-.134,4.819c.8,1.675,4.219,2.536,6.166,3.767,2.059,1.316,2.972,3.1,3.807,5.414a17.3,17.3,0,0,0,1.184,3.182c1.453,2.234,9.761,3.026,12.593,2.123a3.4,3.4,0,0,0,.131-2.474c-.4-.961-1.768-1.027-2.626-1.767a13.148,13.148,0,0,1-1.966-3.177c-1.312-2.365-2.673-4.2-3.8-6.6-.577-1.221-1.318-2.846-1.184-4,.289-2.468,5.1-5.436,6.826-6.717,6.791-5.009,13.688-9.106,19.681-14.473a22.108,22.108,0,0,1,3.807-3.064c2.189-1.2,4.27-1.51,5.245-3.646.937-2.047.951-4.332,1.575-6.711.27-1,.243-2.242,1.051-3.061a23,23,0,0,1,3.285,6.354,11.927,11.927,0,0,1,0,6.245c-.364,1.777-.733,3.6-1.051,5.408-.1.541-.468,1.1-.525,1.646-.049.422.167.862.128,1.3-.04.4-.376.784-.4,1.18-.017.422.21,1.049.267,1.641a39.573,39.573,0,0,0,.786,5.891c.683,2.687,2.724,5.043,3.669,7.3,1.37,3.257,2.727,7.279,2.366,11.532-.238,2.829-1.947,6.858-.79,9.193,1.051,2.087,6.51,1.718,9.709,1.406,1.493-.148,2.735-.694,4.462-.828,3.873-.3,7.729,1.228,11.55.828a22.564,22.564,0,0,0,3.412-.939c1.361-.514,3.072-1.495,3.013-2.36-.041-.747-1.425-1.312-2.624-1.763-2.91-1.091-6.662-1.373-9.578-2.354a44.351,44.351,0,0,1-4.726-1.883c-3.707-1.838-3.34-5.115-3.93-10.238-.071-.593-.315-.946-.4-1.769-.446-4.784-.022-9.6-.13-13.773-.086-3.222-.413-6.231-.258-9.294.243-5.132,1.807-10.223,1.564-15.539a64.389,64.389,0,0,0-1.176-6.944,37.426,37.426,0,0,0-1.315-6c-1.229-3.859-2.65-7.443-3.937-11.07-.912-2.568-2.1-4.678-1.7-7.768.671-5.291,3.655-10.477,4.723-15.536.2-.92-.268-2.215.662-3.058,1.306.457,1.523,1.664,2.223,2.469a23.967,23.967,0,0,0,5.252,4.24,13.2,13.2,0,0,1,2.889,2c.993,1.152,1.06,2.823,1.836,4.118,1.337,2.239,3.263,3.9,4.723,6,.346,1.853,1.61,2.742,4.2,2.709.527-.009,1.255-.357,1.844-.357.709,0,1.22.437,1.7.357s.881-.7,1.443-1.063c.883-.556,1.271-.508,1.311-1.174.052-.787-1.151-1.911-1.961-2.829C590.22,295.793,588.924,294.928,588.659,293.961Zm-52.744-20.833c-1.254.919-1.523,2.714-1.839,4.472-.547.068-.732-.209-1.177-.234-.372-2.848-1.523-4.992-1.576-8.122.052-.559-.5-.573-.524-1.054a8.214,8.214,0,0,1,1.574-6.129c.156-2.369,1.639-3.545,1.832-5.879.34-.413,1.694-.254,2.237-.123.164,4.078.068,8.214.128,12.6-.024.44-.417.568-.525.939A20.938,20.938,0,0,1,535.915,273.128Z" transform="translate(-317.209 -162.327)" fill="currentColor"></path>
<path d="M497.074,382.267c-.9-.229-2.14.27-3.279.34-1.4.089-3.107.1-4.726.229a24.551,24.551,0,0,1-4.594.334c-2.747-.417-2.724-3.07-2.885-5.556a17.6,17.6,0,0,1,.528-5.566c.618-2.539,2.049-4.757,2.75-6.918.866-2.664.886-4.962,1.316-8.3.375-2.912,2.123-5.183,2.625-8.281.433-2.684-.9-5.849-1.576-7.609-.464-1.213-.789-1.988-1.179-2.953-3.372-8.309-9.911-12.968-15.88-18.73-.658-.636-3.455-3.06-3.543-3.857-.078-.746.986-2.1,1.449-3.18,1.437-3.414,2.749-7.229,3.8-10.217.8-2.281,1.563-8.616,4.594-8.516a3.3,3.3,0,0,1,1.836.91,37.1,37.1,0,0,0,4.724,3.4c1.724.875,5.468,1.372,6.692,2.159,1.4.9.836,2.729,1.311,4.538.376,1.447,1.471,3.642,2.361,3.975,2.313.869,2.8-1.364,3.806-2.268,2.131,1.032,2.574,2.962,1.574,5-.621,1.256-2.564,2.534-1.969,3.625.862,1.59,3.583-.086,4.46-.907a9.136,9.136,0,0,0,2.889-5.446c.529-5.055-1.96-6.189-4.988-8.062-3.815-2.34-6.429-5.183-9.444-8.059-3.23-2.412-5.847-5.563-8.663-8.63-.969-1.051-2.516-1.958-2.884-2.948-.491-1.321-.074-3.533-.134-4.995-.148-3.7-.293-6.627-1.181-9.42-.437-1.382-1.451-3.039-.919-4.429a3.152,3.152,0,0,1,2.234-1.479c1.386-.083,2.911.876,4.332,1.25,4.563,1.2,7.434-.993,9.707-2.951.876-.759,3.085-2.32,3.016-4.089-.062-1.6-1.958-2.655-2.886-3.634-1.014-1.066-2.487-2.561-2.621-3.853-.2-1.91,1.674-2.323,1.439-4.318-.1-.914-1.3-2.451-2.229-3.519-2.479-2.865-7.009-4.614-12.857-4.206-4.284.311-5.869,1.559-8.136,3.636a12.3,12.3,0,0,0-4.065,6.7,7.333,7.333,0,0,1-1.179,3.177,10.536,10.536,0,0,1-2.629,1.253c-4.792,2.1-8.442,3.924-11.677,7.148a71.162,71.162,0,0,0-9.053,11.35c-1.854,2.8-3.233,5.671-5.643,7.834-3.222,2.894-7.424,5.769-6.956,11.244.423,4.926.949,9.949,2.5,14.3.862,2.443,2.269,4.675,2.623,7.04s-.028,4.287.131,7.266c-1.443,2.469-6.39,2.485-5.775,6.354.638.956,2.742.33,3.543.91a4.167,4.167,0,0,1-3.15,2.842c-2.04.343-4.512-.5-6.3.335-.675,1.175-.093,1.891.786,2.385,3.217,1.827,10.162,1.447,12.6-.562,2.644-2.192,3.995-6.355,4.985-9.882.223-.8.184-1.856,1.054-2.382,1.382,5.429-1.66,11.5.391,16.116a18.581,18.581,0,0,0,6.428,5.228c.868.426,3.708,1.054,3.548,2.041-.13.768-1.813.673-2.761.913a40.287,40.287,0,0,0-3.934,1.47c-4.323,1.533-8.207,3.025-12.206,4.657-2.261.919-4.454,2.146-6.69,2.945-2.4.865-5.1,1.427-6.428,3.18-.353,2.243.6,3.554.918,5.11.319,1.573.309,3.348.524,5.109.063.533.364,1.05.4,1.6a21.5,21.5,0,0,1-.4,3.97c-.063.427.079.824,0,1.589-.2,1.875-1.1,5.034-.135,6.125,1.349,1.515,3.414.174,4.2-.563.326-.307,1.347-1.7,1.969-1.7.509-.005,1.63,1.177,2.226,1.7.763.655,1.439,1.476,2.625,1.476,1.856-.006,3.748-2.706,2.628-5.109-.649-1.381-3.163-1.278-3.8-2.494-.5-.946-.313-3.313-.268-4.43a18.9,18.9,0,0,1,.4-4.429,9.028,9.028,0,0,1,4.724-4.656c1.895-.58,3.957-.289,5.772-.454a46.723,46.723,0,0,0,12.464-2.954c1.309-.508,2.332-1.282,3.541-1.81,2.5-1.1,5.82-.742,8.271-1.932,1.49-.73,2.36-2.557,2.885-4.084.314-.922.069-2.266,1.316-2.843,1.955,1.7,4.105,3.051,4.067,5.676-.03,1.634-1.071,2.834-1.577,3.977-.619,1.387-.5,3.222-1.05,4.768-.494,1.38-1.715,2.806-1.7,4.2.008,1,.671,2.261.784,3.525.319,3.456-.536,7.944.262,11.466a25.486,25.486,0,0,1,.921,3.522c.028.608-.143,1.256-.133,2.034.034,2.494.907,7.96,3.281,8.413,1.388.245,3.143-.456,4.59-.575,2.758-.227,5.088,1.127,8.009,1.361a16.793,16.793,0,0,0,5.373-.689,30.325,30.325,0,0,1,3.152-.672c.515-.009.959.287,1.573.34,2.792.235,5.106-.218,4.07-3.068C499.646,385.256,497.9,382.473,497.074,382.267Zm-51.829-94.339a19.635,19.635,0,0,1-1.048,4.2c-.21.75-.07,1.571-.261,2.271-.3,1.1-.8,2.166-1.052,3.287-.226,1.039-.291,2.411-1.44,2.843l-.523-3.171-1.054-6.365c-.314-.96-.976-1.794-.789-2.607.258-1.125,3.678-2.679,5.119-3.635.161-.111.188-.221.522-.232C445.492,285.41,445.306,286.8,445.245,287.928Z" transform="translate(-317.209 -162.327)" fill="currentColor"></path>
<path d="M419.79,299.348c.054-2.086-4.4-4-4.46-6.688-.028-1.375,1.394-2.323,1.315-3.539-.125-1.786-3.49-3.788-4.594-4.72-1.864-1.564-4.264-4-7.218-3.93a37.542,37.542,0,0,0-5.377.262c-2.62.577-4.706,2.039-6.7,3.277-1.385.861-2.63,2.1-3.669,2.229a13.854,13.854,0,0,1-2.1-.263,27.425,27.425,0,0,0-4.726,0c-2.588.311-6.088.647-8.4,1.7-2.491,1.145-4.932,3.593-7.085,5.639-3.431,3.251-6.4,6.581-9.58,9.7-2.213,2.172-4.732,3.857-7.086,5.765a28.439,28.439,0,0,0-3.41,3.021c-1.576,1.808-2.856,4.239-4.463,5.766-.975.925-2.172,1.425-2.755,2.229-1.219,1.676-1.657,3.837-2.491,5.9a37.085,37.085,0,0,0-1.707,3.93,13.4,13.4,0,0,0,2.621,11.536c1.016,1.361,2.708,2.5,3.157,4.067.222.792.055,1.782.26,2.619.324,1.367.714,2.785,1.047,3.936.3,1.027.948,1.889.786,2.756-.169.934-1.648,1.873-2.621,2.624a26,26,0,0,1-6.692,4.063c-1.389.517-2.971.533-4.2,1.176-.883.454-2.062,2.275-2.889,3.536a35.158,35.158,0,0,1-2.753,3.679c-1.278,1.535-5.926,4.611-5.646,7.208.125,1.136,1,1.324,1.837,2.1a14.661,14.661,0,0,1,3.938,5.505c.552,1.336.779,3.194,1.574,3.936.622.565,2.538.748,4.2,1.053,1.457.245,3.278.825,4.461.9,3.3.243,7.29-.178,7.217-3.011-.05-2.023-3.528-3.457-5.511-4.452-1.8-.907-5.4-2.475-5.249-4.72.075-1.11,1.813-2.284,2.886-3.151,5.16-4.144,9.894-8.036,16.931-9.7,3.455-1.5,5.458-4.382,6.427-8.261.19-.768-.03-2,.784-2.491a9.14,9.14,0,0,1,1.58,5.243,91.374,91.374,0,0,1-1.447,12.848c-.394,2.349-1.521,5.431-.653,8,.308.912,1.568,1.6,1.7,2.62.137.993-.506,1.936-.392,2.889.344,2.894,3.028,1.911,5.51,1.438a15.914,15.914,0,0,1,4.331-.388,16.379,16.379,0,0,1,3.149,1.042c2.655.824,5.105,1.164,7.482,0,.714-.554.451-2.08.917-2.88,1.193.214,1.557,1.207,2.491,1.838,1.264.845,3.314,2.194,4.988,1.961s3.75-2.837,3.934-4.586c.605-5.626-.312-13.573-1.051-19.15-.383-2.9-.5-6.313-.915-8.516-.4-2.14-.355-4.386-.655-6.418-.146-1.005-.374-2.015-.525-3.021-.148-.929-.5-2.393.393-3.023a89.273,89.273,0,0,1,4.328,11.545c.25.848.636,1.523.921,2.362.543,1.612.794,3.383,1.313,5.118.167.561.612,1.029.781,1.569.467,1.409.68,2.835,1.185,4.2a25.589,25.589,0,0,0,3.674,6.025c1.466,1.944,3.445,3.459,4.2,5.5.937,2.537-.036,4.27-.786,6.027.928,1.581,4.065,2.514,6.559,1.707a5.136,5.136,0,0,0,2.1-1.83c2.348-3.682-.464-9.2-1.966-11.935-1.773-3.233-3.615-5.665-4.591-9.437-1.329-5.144-2.673-10.831-4.331-15.611-1.073-3.088-2.7-5.9-3.676-8.775-.36-1.067-.813-2.194-1.048-3.148-.389-1.56-.113-3.144-.392-4.723-.448-2.54-1.432-4.571-1.835-6.815-.226-1.233-.547-2.479-.659-3.672-.387-4.047.833-5.9,1.57-8.657.488-1.8.731-3.785,1.316-5.629.461-1.459,1.667-3.685,2.756-3.8,1.6-.186,3.27,1.943,4.723,2.229,2.161.422,7.652.227,9.186-.394,1.378-.557,2.051-2.563,2.889-3.673C417.569,301.743,419.763,300.625,419.79,299.348ZM380.556,382.21c-.5.433-1.28,1.4-1.572,1.446-.994.135-1.495-1.061-2.362-1.314-1.729-.506-4.594-.377-5.9-.525-.852-.1-2.632-.622-2.886-1.444-.754-2.438,2.328-3.862,3.411-5.505.855-1.29.57-2.324,1.05-4.193.79-3.087,3.95-5,4.461-8.4.375-2.488-.33-5.022-.524-7.336-.312-3.706.241-7.318-1.966-9.966-.343-1.213-3.146-2.34-2.5-3.679.57-1.154,3.816-.754,5.377-1.046,1.058,3.941,1.432,8.56,1.974,13.506.409,3.777,1.306,7.559,1.963,11.411.171.981.041,1.966.264,2.875.429,1.755,1.384,3.275,1.708,4.856C383.914,377.147,382.779,380.3,380.556,382.21Z" transform="translate(-317.209 -162.327)" fill="currentColor"></path>
</svg>